<svg xmlns="http://www.w3.org/2000/svg" viewBox="0 0 602 182">
  <path fill="#FF9900" d="M374.006 142.184c-35 25.797-85.729 39.561-129.406 39.561-61.242 0-116.376-22.651-158.087-60.325-3.278-2.962-.341-7 3.591-4.693 45.015 26.191 100.673 41.947 158.166 41.947 38.775 0 81.43-8.022 120.65-24.67 5.925-2.516 10.88 3.88 5.086 8.18"/>
  <path fill="#FF9900" d="M388.557 125.536c-4.457-5.715-29.573-2.7-40.846-1.363-3.434.42-3.959-2.57-.865-4.719 20.003-14.078 52.827-10.015 56.654-5.296 3.828 4.745-.996 37.648-19.788 53.351-2.888 2.411-5.636 1.127-4.352-2.072 4.221-10.539 13.685-34.161 9.197-39.901"/>
  <path fill="#000000" d="M348.72 20.425v-13.81c0-2.08 1.578-3.48 3.46-3.48h61.269c1.966 0 3.544 1.4 3.544 3.48v11.82c-.027 1.98-1.678 4.56-4.614 8.64l-31.75 45.41c11.79-.29 24.254 1.47 34.956 7.47 2.401 1.34 3.05 3.31 3.24 5.25v14.71c0 1.97-2.17 4.28-4.44 3.09-18.612-9.76-43.306-10.81-63.848.11-2.088 1.11-4.273-1.14-4.273-3.11v-13.99c0-2.19.038-5.93 2.215-9.24l36.813-52.83h-32.086c-1.966 0-3.544-1.4-3.544-3.48M124.989 105.044c0-15.755 .006-28.855-.008-41.955 0-1.33.244-2.454 1.209-3.31 16.562-14.391 38.904-22.418 62.081-22.418 32.671 0 63.31 12.088 85.516 35.657 1.642 1.74 1.707 4.567.351 6.286-8.395 10.498-17.384 19.047-26.694 27.835-1.823 1.734-4.274 1.774-6.148.307-28.129-20.71-63.049-24.483-96.439-15.067-3.193.9-3.86.21-3.86-3.346"/>
  <path fill="#000000" d="M124.989 20.425v-13.81c0-2.08 1.578-3.48 3.46-3.48h61.269c1.966 0 3.544 1.4 3.544 3.48v11.82c-.027 1.98-1.678 4.56-4.614 8.64l-31.75 45.41c11.79-.29 24.254 1.47 34.956 7.47 2.401 1.34 3.05 3.31 3.24 5.25v14.71c0 1.97-2.17 4.28-4.44 3.09-18.612-9.76-43.306-10.81-63.848.11-2.088 1.11-4.273-1.14-4.273-3.11v-13.99c0-2.19.038-5.93 2.215-9.24l36.813-52.83h-32.086c-1.966 0-3.544-1.4-3.544-3.48"/>
</svg> 