<svg xmlns="http://www.w3.org/2000/svg" viewBox="0 0 1024 277">
  <path fill="#E50914" d="M140.803 258.904c-15.404 2.705-31.079 3.516-47.294 5.676L44.051 119.724v151.073C28.647 272.418 14.594 274.58 0 276.742V0h41.08l54.088 157.021V0h43.486v258.904h2.149zM236.373 0h43.486v226.355h72.244v50.587h-115.73V0zM375.442 0h43.486v277.942h-43.486V0zM495.021 0h41.079l56.238 157.021V0h43.486v276.742h-41.621l-55.696-155.953v155.953h-43.486V0zM741.973 0h43.486v157.021l54.088-157.021h41.621l-56.779 157.021 55.696 119.721h-40.538l-54.088-117.559v117.559h-43.486V0z"/>
</svg> 