<?xml version="1.0" encoding="UTF-8"?>
<svg xmlns="http://www.w3.org/2000/svg" viewBox="0 0 602 182" width="602" height="182">
  <path fill="#FF9900" d="M374.006 142.184c-35 25.797-85.729 39.561-129.406 39.561-61.242 0-116.376-22.651-158.087-60.325-3.278-2.962-.341-7 3.591-4.693 45.015 26.191 100.673 41.947 158.166 41.947 38.775 0 81.43-8.022 120.65-24.67 5.925-2.516 10.88 3.88 5.086 8.18"/>
  <path fill="#FF9900" d="M388.557 125.536c-4.457-5.715-29.573-2.7-40.846-1.363-3.434.419-3.959-2.569-.865-4.719 20.003-14.078 52.827-10.015 56.654-5.296 3.828 4.745-.996 37.648-19.788 53.351-2.888 2.411-5.637 1.127-4.352-2.072 4.22-10.539 13.685-34.16 9.197-39.901"/>
  <path fill="#000000" d="M348.497 20.066V6.381c0-2.071 1.573-3.46 3.461-3.46h61.269c1.966 0 3.54 1.415 3.54 3.46v11.62c0 1.966-1.679 4.535-4.615 8.599l-31.749 45.329c11.798-.299 24.25 1.468 34.947 7.498 2.412 1.363 3.068 3.356 3.251 5.322v14.452c0 1.992-2.202 4.361-4.509 3.149-18.932-9.941-44.482-11.041-65.606.394-2.175 1.181-4.434-1.181-4.434-3.173V86.075c0-2.229.052-6.03 2.28-9.412l36.782-52.749h-31.904c-1.966 0-3.513-1.389-3.513-3.46l.1-0.388zm-18.813 164.109c-51.658 38.079-126.781 58.292-191.424 58.292-90.44 0-171.818-33.412-233.305-89.074-4.824-4.361-.522-10.276 5.298-6.945 66.244 38.524 148.278 61.74 232.919 61.74 57.208 0 120.088-11.876 177.92-36.403 8.71-3.695 16.062 5.688 8.592 12.39zM376.194 196.987c-6.603-8.445-43.666-3.985-60.269-2.015-5.062.626-5.831-3.802-1.284-6.971 29.5-20.761 77.918-14.768 83.527-7.797 5.609 6.971-1.47 55.514-29.163 78.699-4.269 3.593-8.315 1.677-6.423-3.036 6.234-15.53 20.158-50.35 13.612-58.88z"/>
</svg> 